<svg width="24" height="24" viewBox="0 0 24 24" fill="none" xmlns="http://www.w3.org/2000/svg">
<g clip-path="url(#clip0_57_38)">
<mask id="mask0_57_38" style="mask-type:luminance" maskUnits="userSpaceOnUse" x="0" y="0" width="24" height="24">
<path d="M24 0H0V24H24V0Z" fill="white"/>
</mask>
<g mask="url(#mask0_57_38)">
<path d="M12 22.75C6.07 22.75 1.25 17.93 1.25 12C1.25 6.07 6.07 1.25 12 1.25C17.93 1.25 22.75 6.07 22.75 12C22.75 12.41 22.41 12.75 22 12.75C21.59 12.75 21.25 12.41 21.25 12C21.25 6.9 17.1 2.75 12 2.75C6.9 2.75 2.75 6.9 2.75 12C2.75 17.1 6.9 21.25 12 21.25C12.41 21.25 12.75 21.59 12.75 22C12.75 22.41 12.41 22.75 12 22.75Z" fill="white" fill-opacity="0.6"/>
<path d="M9.00024 21.75H8.00024C7.59024 21.75 7.25024 21.41 7.25024 21C7.25024 20.59 7.57023 20.26 7.98023 20.25C6.41023 14.89 6.41023 9.11 7.98023 3.75C7.58023 3.74 7.25024 3.41 7.25024 3C7.25024 2.59 7.59024 2.25 8.00024 2.25H9.00024C9.24024 2.25 9.47024 2.37 9.61024 2.56C9.75024 2.76 9.79025 3.00999 9.71025 3.23999C7.83025 8.88999 7.83025 15.12 9.71025 20.77C9.79025 21 9.75024 21.25 9.61024 21.45C9.47024 21.65 9.24024 21.75 9.00024 21.75Z" fill="white" fill-opacity="0.6"/>
<path d="M16.46 12.7505C16.05 12.7505 15.71 12.4105 15.71 12.0005C15.71 9.02045 15.2299 6.07044 14.2899 3.24044C14.1599 2.85044 14.3699 2.42043 14.7599 2.29043C15.1499 2.16043 15.58 2.37046 15.71 2.76046C16.7 5.74046 17.21 8.85045 17.21 12.0005C17.21 12.4105 16.87 12.7505 16.46 12.7505Z" fill="white" fill-opacity="0.6"/>
<path d="M12 17.2108C9.2 17.2108 6.43 16.8108 3.75 16.0208C3.74 16.4208 3.41 16.7508 3 16.7508C2.59 16.7508 2.25 16.4108 2.25 16.0008V15.0008C2.25 14.7608 2.37 14.5308 2.56 14.3908C2.76 14.2508 3.01001 14.2108 3.24001 14.2908C6.07001 15.2308 9.02 15.7108 12 15.7108C12.41 15.7108 12.75 16.0508 12.75 16.4608C12.75 16.8708 12.41 17.2108 12 17.2108Z" fill="white" fill-opacity="0.6"/>
<path d="M21.0002 9.7494C20.9202 9.7494 20.8402 9.73942 20.7602 9.70942C15.1102 7.82942 8.88018 7.82942 3.23018 9.70942C2.84018 9.83942 2.41018 9.62939 2.28018 9.23939C2.15018 8.84939 2.36018 8.41938 2.75018 8.28938C8.71018 6.29938 15.2702 6.29938 21.2202 8.28938C21.6102 8.41938 21.8202 8.84939 21.6902 9.23939C21.6102 9.54939 21.3102 9.7494 21.0002 9.7494Z" fill="white" fill-opacity="0.6"/>
<path d="M18.2 22.15C16.02 22.15 14.25 20.38 14.25 18.2C14.25 16.02 16.02 14.25 18.2 14.25C20.38 14.25 22.15 16.02 22.15 18.2C22.15 20.38 20.38 22.15 18.2 22.15ZM18.2 15.75C16.85 15.75 15.75 16.85 15.75 18.2C15.75 19.55 16.85 20.65 18.2 20.65C19.55 20.65 20.65 19.55 20.65 18.2C20.65 16.85 19.55 15.75 18.2 15.75Z" fill="white" fill-opacity="0.6"/>
<path d="M21.9999 22.7495C21.8099 22.7495 21.6199 22.6795 21.4699 22.5295L20.4699 21.5295C20.1799 21.2395 20.1799 20.7595 20.4699 20.4695C20.7599 20.1795 21.2399 20.1795 21.5299 20.4695L22.5299 21.4695C22.8199 21.7595 22.8199 22.2395 22.5299 22.5295C22.3799 22.6795 22.1899 22.7495 21.9999 22.7495Z" fill="white" fill-opacity="0.6"/>
</g>
</g>
<defs>
<clipPath id="clip0_57_38">
<rect width="24" height="24" fill="white"/>
</clipPath>
</defs>
</svg>
