<svg width="24" height="24" viewBox="0 0 24 24" fill="none" xmlns="http://www.w3.org/2000/svg">
<g clip-path="url(#clip0_78_37)">
<mask id="mask0_78_37" style="mask-type:luminance" maskUnits="userSpaceOnUse" x="0" y="0" width="24" height="24">
<path d="M24 0H0V24H24V0Z" fill="white"/>
</mask>
<g mask="url(#mask0_78_37)">
<path d="M18.2502 14.2204C18.0602 14.2204 17.8602 14.1405 17.7202 14.0005L12.0502 8.33049C11.8002 8.08049 11.7602 7.7005 11.9502 7.4005L13.7202 4.60045C14.2002 3.83045 14.9502 3.36049 15.8102 3.26049C16.7602 3.15049 17.7702 3.54048 18.5502 4.32048L21.7302 7.50048C22.4802 8.25048 22.8502 9.25048 22.7402 10.2505C22.6402 11.1205 22.1802 11.8704 21.4602 12.3304L18.6602 14.1005C18.5302 14.1805 18.3902 14.2204 18.2502 14.2204ZM13.5402 7.70049L18.3602 12.5205L20.6502 11.0705C20.9902 10.8605 21.2002 10.5105 21.2402 10.0905C21.3002 9.5605 21.0802 8.99048 20.6602 8.57048L17.4802 5.39049C17.0202 4.93049 16.4702 4.70049 15.9702 4.76049C15.5702 4.80049 15.2302 5.03045 14.9902 5.41045L13.5402 7.70049Z" fill="white" fill-opacity="0.6"/>
<path d="M6.63008 22.7495C5.69008 22.7495 4.86008 22.4196 4.24008 21.7996C3.52008 21.0796 3.20008 20.0695 3.33008 18.9495L4.31007 10.6695C4.36007 10.2595 4.73007 9.96958 5.14007 10.0095C5.55007 10.0595 5.85008 10.4296 5.80008 10.8396L4.82008 19.1195C4.74008 19.7695 4.91008 20.3395 5.30008 20.7295C5.69008 21.1195 6.27007 21.2995 6.93007 21.2195L15.6501 20.1895C17.5101 19.9695 17.9201 19.4696 17.7401 17.6496L17.5001 13.4995C17.4801 13.0895 17.7901 12.7295 18.2101 12.7095C18.6201 12.6895 18.9801 12.9996 19.0001 13.4196L19.2401 17.5396C19.5001 20.1196 18.4801 21.3695 15.8301 21.6895L7.11008 22.7195C6.95008 22.7395 6.79008 22.7495 6.63008 22.7495Z" fill="white" fill-opacity="0.6"/>
<path d="M12.5801 8.55926C12.5601 8.55926 12.5501 8.55926 12.5301 8.55926L10.7801 8.44927C10.3701 8.41927 10.0501 8.06928 10.0801 7.64928C10.1101 7.22928 10.4601 6.91927 10.8801 6.94927L12.6301 7.05926C13.0401 7.08926 13.3601 7.43924 13.3301 7.85924C13.3001 8.24924 12.9701 8.55926 12.5801 8.55926Z" fill="white" fill-opacity="0.6"/>
<path d="M5.28022 21.5291C5.09022 21.5291 4.90021 21.4592 4.75021 21.3092C4.46021 21.0192 4.46021 20.5391 4.75021 20.2491L7.93022 17.0691C8.22022 16.7791 8.70023 16.7791 8.99023 17.0691C9.28023 17.3591 9.28023 17.8391 8.99023 18.1291L5.81022 21.3092C5.66022 21.4592 5.47022 21.5291 5.28022 21.5291Z" fill="white" fill-opacity="0.6"/>
<path d="M6.5 11.75C5.91 11.75 5.34 11.65 4.81 11.47C3.65 11.08 2.64999 10.28 2.00999 9.21002C1.50999 8.39002 1.25 7.45 1.25 6.5C1.25 4.88 1.97 3.39002 3.23 2.40002C4.15 1.66002 5.31 1.25 6.5 1.25C9.4 1.25 11.75 3.61 11.75 6.5C11.75 6.97 11.68 7.45997 11.55 7.90997C11.42 8.36997 11.24 8.79002 10.99 9.21002C10.7 9.69002 10.35 10.1 9.94 10.45C9 11.29 7.78 11.75 6.5 11.75ZM6.5 2.75C5.65 2.75 4.82 3.04001 4.16 3.57001C3.26 4.28001 2.75 5.34 2.75 6.5C2.75 7.17 2.93999 7.83999 3.28999 8.42999C3.74999 9.18999 4.45999 9.76998 5.28999 10.04C6.49999 10.47 7.95001 10.2 8.96001 9.31C9.25001 9.06 9.50001 8.75999 9.71001 8.42999C9.89001 8.12999 10.02 7.83 10.11 7.5C10.2 7.17 10.25 6.83 10.25 6.5C10.25 4.43 8.57 2.75 6.5 2.75Z" fill="white" fill-opacity="0.6"/>
<path d="M6.52002 8.9303C6.11002 8.9303 5.77002 8.5903 5.77002 8.1803V4.82031C5.77002 4.41031 6.11002 4.07031 6.52002 4.07031C6.93002 4.07031 7.27002 4.41031 7.27002 4.82031V8.1803C7.27002 8.6003 6.93002 8.9303 6.52002 8.9303Z" fill="white" fill-opacity="0.6"/>
<path d="M8.15981 7.25H4.7998C4.3898 7.25 4.0498 6.91 4.0498 6.5C4.0498 6.09 4.3898 5.75 4.7998 5.75H8.15981C8.56981 5.75 8.90981 6.09 8.90981 6.5C8.90981 6.91 8.57981 7.25 8.15981 7.25Z" fill="white" fill-opacity="0.6"/>
</g>
</g>
<defs>
<clipPath id="clip0_78_37">
<rect width="24" height="24" fill="white"/>
</clipPath>
</defs>
</svg>
