<svg width="110" height="36" viewBox="0 0 110 36" fill="none" xmlns="http://www.w3.org/2000/svg">
<path opacity="0.5" d="M0 10.8948V25.1052L13.3906 15.9225V1.71191L0 10.8948Z" fill="white"/>
<path opacity="0.5" d="M0 25.1053V10.8948L13.3906 20.0776V34.2882L0 25.1053Z" fill="white"/>
<path opacity="0.5" d="M29.932 10.8947V25.1053L16.5414 15.9224V1.71191L29.932 10.8947Z" fill="white"/>
<path opacity="0.5" d="M29.932 25.1053V10.8948L16.5414 20.0776V34.2882L29.932 25.1053Z" fill="white"/>
<path d="M37.415 18.15C37.415 16.85 37.6956 15.6938 38.2568 14.6813C38.818 13.6562 39.5975 12.8625 40.5952 12.3C41.6054 11.725 42.7466 11.4375 44.0187 11.4375C45.5776 11.4375 46.9122 11.85 48.0221 12.675C49.1321 13.5 49.8741 14.625 50.2483 16.05H46.7313C46.4694 15.4999 46.0952 15.0812 45.6088 14.7938C45.1349 14.5062 44.5924 14.3625 43.9813 14.3625C42.996 14.3625 42.1979 14.7062 41.5867 15.3937C40.9756 16.0812 40.6701 17 40.6701 18.15C40.6701 19.3 40.9756 20.2187 41.5867 20.9062C42.1979 21.5937 42.996 21.9375 43.9813 21.9375C44.5924 21.9375 45.1349 21.7937 45.6088 21.5062C46.0952 21.2187 46.4694 20.8 46.7313 20.25H50.2483C49.8741 21.675 49.1321 22.8 48.0221 23.625C46.9122 24.4375 45.5776 24.8438 44.0187 24.8438C42.7466 24.8438 41.6054 24.5625 40.5952 24C39.5975 23.425 38.818 22.6313 38.2568 21.6188C37.6956 20.6063 37.415 19.45 37.415 18.15Z" fill="white"/>
<path d="M62.141 14.2875V24.75H58.942V23.325C58.6177 23.7874 58.175 24.1624 57.6138 24.45C57.065 24.7249 56.4539 24.8625 55.7805 24.8625C54.9823 24.8625 54.2776 24.6874 53.6665 24.3375C53.0554 23.9749 52.5815 23.4562 52.2448 22.7812C51.908 22.1062 51.7397 21.3124 51.7397 20.4V14.2875H54.9199V19.9687C54.9199 20.6687 55.1007 21.2125 55.4624 21.6C55.8241 21.9874 56.3105 22.1812 56.9216 22.1812C57.5452 22.1812 58.0378 21.9874 58.3995 21.6C58.7612 21.2125 58.942 20.6687 58.942 19.9687V14.2875H62.141Z" fill="white"/>
<path d="M67.2637 15.7687C67.563 15.2812 67.9932 14.8875 68.5545 14.5875C69.1157 14.2875 69.758 14.1375 70.4813 14.1375C71.3419 14.1375 72.1213 14.3562 72.8198 14.7938C73.5182 15.2312 74.0669 15.8562 74.466 16.6688C74.8778 17.4812 75.0836 18.425 75.0836 19.5C75.0836 20.575 74.8778 21.525 74.466 22.35C74.0669 23.1625 73.5182 23.7938 72.8198 24.2438C72.1213 24.6812 71.3419 24.9 70.4813 24.9C69.7455 24.9 69.1032 24.7562 68.5545 24.4688C68.0057 24.1687 67.5754 23.775 67.2637 23.2875V24.75H64.0647V10.875H67.2637V15.7687ZM71.8283 19.5C71.8283 18.7 71.6038 18.075 71.1548 17.625C70.7183 17.1625 70.1757 16.9313 69.5273 16.9313C68.8912 16.9313 68.3487 17.1625 67.8997 17.625C67.4632 18.0875 67.2449 18.7187 67.2449 19.5187C67.2449 20.3187 67.4632 20.95 67.8997 21.4125C68.3487 21.8749 68.8912 22.1063 69.5273 22.1063C70.1633 22.1063 70.7058 21.8749 71.1548 21.4125C71.6038 20.9374 71.8283 20.2999 71.8283 19.5Z" fill="white"/>
<path d="M86.2273 19.3501C86.2273 19.6501 86.2086 19.9625 86.1712 20.2876H78.9314C78.9815 20.9375 79.1873 21.4375 79.5487 21.7876C79.9229 22.1251 80.3786 22.2938 80.9144 22.2938C81.7128 22.2938 82.268 21.9563 82.5793 21.2813H85.9841C85.8097 21.9688 85.4917 22.5875 85.03 23.1376C84.581 23.6875 84.0138 24.1188 83.3276 24.4313C82.6422 24.7438 81.8752 24.9001 81.0266 24.9001C80.0044 24.9001 79.0937 24.6813 78.2953 24.2438C77.4976 23.8063 76.8735 23.1813 76.4246 22.3688C75.9756 21.5563 75.7511 20.6063 75.7511 19.5188C75.7511 18.4313 75.9696 17.4813 76.4059 16.6688C76.8548 15.8563 77.4789 15.2313 78.2766 14.7938C79.075 14.3563 79.9917 14.1376 81.0266 14.1376C82.0368 14.1376 82.9348 14.35 83.7205 14.7751C84.5062 15.2 85.1176 15.8063 85.5538 16.5938C86.0028 17.3813 86.2273 18.3001 86.2273 19.3501ZM82.9535 18.5063C82.9535 17.9563 82.7664 17.5188 82.3922 17.1938C82.0181 16.8688 81.5504 16.7063 80.9892 16.7063C80.4534 16.7063 79.9977 16.8625 79.6235 17.1751C79.2621 17.4875 79.0376 17.9313 78.9501 18.5063H82.9535Z" fill="white"/>
<path d="M93.9205 24.75L90.7403 20.3625V24.75H87.5413V10.875H90.7403V18.5438L93.9018 14.2875H97.8491L93.509 19.5375L97.8865 24.75H93.9205Z" fill="white"/>
<path d="M100.34 13.2001C99.779 13.2001 99.3173 13.0375 98.9558 12.7126C98.6064 12.3751 98.432 11.9626 98.432 11.4751C98.432 10.975 98.6064 10.5625 98.9558 10.2376C99.3173 9.90007 99.779 9.73132 100.34 9.73132C100.889 9.73132 101.338 9.90007 101.687 10.2376C102.049 10.5625 102.23 10.975 102.23 11.4751C102.23 11.9626 102.049 12.3751 101.687 12.7126C101.338 13.0375 100.889 13.2001 100.34 13.2001ZM101.93 14.2876V24.7501H98.7314V14.2876H101.93Z" fill="white"/>
<path d="M109.692 22.0313V24.75H108.065C106.905 24.75 106.001 24.4688 105.352 23.9063C104.704 23.3313 104.38 22.4 104.38 21.1125V16.95H103.107V14.2875H104.38V11.7375H107.579V14.2875H109.674V16.95H107.579V21.15C107.579 21.4625 107.653 21.6875 107.803 21.825C107.953 21.9625 108.202 22.0313 108.551 22.0313H109.692Z" fill="white"/>
</svg>
