<svg width="24" height="24" viewBox="0 0 24 24" fill="none" xmlns="http://www.w3.org/2000/svg">
<g opacity="0.6" clip-path="url(#clip0_78_241)">
<mask id="mask0_78_241" style="mask-type:luminance" maskUnits="userSpaceOnUse" x="0" y="0" width="24" height="24">
<path d="M24 0H0V24H24V0Z" fill="white"/>
</mask>
<g mask="url(#mask0_78_241)">
<path d="M10.9702 20.77C5.59021 20.77 1.22021 16.4 1.22021 11.02C1.22021 5.64002 5.59021 1.27002 10.9702 1.27002C16.3502 1.27002 20.7202 5.64002 20.7202 11.02C20.7202 16.4 16.3502 20.77 10.9702 20.77ZM10.9702 2.77002C6.42021 2.77002 2.72021 6.47002 2.72021 11.02C2.72021 15.57 6.42021 19.27 10.9702 19.27C15.5202 19.27 19.2202 15.57 19.2202 11.02C19.2202 6.47002 15.5202 2.77002 10.9702 2.77002Z" fill="white"/>
<path d="M20.1204 22.74C19.9304 22.74 19.7604 22.71 19.6304 22.67C19.1804 22.54 18.3804 22.09 18.1304 20.61C18.0004 19.82 18.2004 19.09 18.7004 18.59C19.1904 18.09 19.9104 17.88 20.6904 18.01C21.6904 18.16 22.4204 18.67 22.6804 19.4C22.9404 20.13 22.7004 20.99 22.0104 21.74C21.2904 22.54 20.6104 22.74 20.1204 22.74ZM19.6004 20.36C19.6904 20.9 19.8904 21.19 20.0504 21.23C20.2004 21.27 20.5204 21.14 20.8904 20.73C21.2404 20.35 21.3104 20.05 21.2504 19.9C21.2004 19.75 20.9604 19.56 20.4404 19.49C20.1404 19.45 19.9004 19.49 19.7504 19.65C19.6004 19.8 19.5404 20.06 19.6004 20.36Z" fill="white"/>
</g>
</g>
<defs>
<clipPath id="clip0_78_241">
<rect width="24" height="24" fill="white"/>
</clipPath>
</defs>
</svg>
