<svg width="32" height="32" viewBox="0 0 32 32" fill="none" xmlns="http://www.w3.org/2000/svg">
<g clip-path="url(#clip0_165_365)">
<mask id="mask0_165_365" style="mask-type:luminance" maskUnits="userSpaceOnUse" x="0" y="0" width="32" height="32">
<path d="M31.0589 13.0316H16.014V19.1831H24.6588C24.5199 20.0537 24.2078 20.9101 23.7509 21.691C23.2273 22.5858 22.5801 23.2669 21.9166 23.7857C19.9294 25.3395 17.6125 25.6572 16.0035 25.6572C11.9389 25.6572 8.46594 22.9766 7.12148 19.3341C7.06723 19.2019 7.0312 19.0654 6.98733 18.9304C6.69023 18.0033 6.5279 17.0215 6.5279 16.001C6.5279 14.939 6.70369 13.9223 7.0242 12.9621C8.28844 9.17522 11.8397 6.34675 16.0064 6.34675C16.8445 6.34675 17.6516 6.44854 18.417 6.65159C20.1661 7.1156 21.4034 8.02949 22.1615 8.75237L26.7361 4.18101C23.9534 1.57756 20.3259 3.93624e-09 15.9988 3.93624e-09C12.5396 -7.59723e-05 9.34593 1.09971 6.72881 2.95838C4.60641 4.46571 2.86573 6.48384 1.69099 8.82767C0.598311 11.0009 0 13.4092 0 15.9986C0 18.5881 0.599225 21.0215 1.69191 23.1746V23.1891C2.84605 25.4749 4.5338 27.4431 6.58508 28.9435C8.3771 30.2543 11.5904 32 15.9988 32C18.534 32 20.7809 31.5336 22.7625 30.6595C24.192 30.029 25.4585 29.2066 26.6052 28.1496C28.1203 26.753 29.3069 25.0255 30.1168 23.038C30.9268 21.0505 31.36 18.8029 31.36 16.3662C31.36 15.2314 31.2483 14.0789 31.0589 13.0315V13.0316Z" fill="white"/>
</mask>
<g mask="url(#mask0_165_365)">
<g filter="url(#filter0_f_165_365)">
<path d="M-0.230713 16.1073C-0.214084 18.656 0.497623 21.2855 1.57491 23.4083V23.4229C2.3533 24.9645 3.41714 26.1823 4.62883 27.3889L11.9471 24.6641C10.5626 23.9464 10.3513 23.5066 9.35876 22.7042C8.3445 21.6606 7.58856 20.4625 7.11779 19.0577H7.09882L7.11779 19.0431C6.80808 18.1154 6.77753 17.1307 6.7661 16.1073H-0.230713Z" fill="url(#paint0_radial_165_365)"/>
</g>
<g filter="url(#filter1_f_165_365)">
<path d="M16.0141 -0.116333C15.2908 2.47672 15.5673 4.99726 16.0141 6.46382C16.8494 6.46445 17.654 6.56605 18.417 6.76846C20.1662 7.23248 21.4033 8.1464 22.1614 8.86928L26.8531 4.18113C24.0737 1.58078 20.7289 -0.112236 16.0141 -0.116333Z" fill="url(#paint1_radial_165_365)"/>
</g>
<g filter="url(#filter2_f_165_365)">
<path d="M15.9984 -0.136841C12.4504 -0.136919 9.17477 0.9911 6.49046 2.89749C5.49377 3.60534 4.57914 4.42302 3.76471 5.33229C3.55135 7.37477 5.36187 9.88519 8.94727 9.86441C10.6869 7.79955 13.2597 6.46359 16.1233 6.46359C16.1259 6.46359 16.1285 6.46381 16.1311 6.46382L16.0141 -0.136374C16.0089 -0.136377 16.0037 -0.136841 15.9984 -0.136841Z" fill="url(#paint2_radial_165_365)"/>
</g>
<g filter="url(#filter3_f_165_365)">
<path d="M27.7088 16.8463L24.542 19.0663C24.403 19.9369 24.0907 20.7933 23.6338 21.5742C23.1102 22.4689 22.463 23.1501 21.7996 23.6688C19.8165 25.2195 17.5058 25.5388 15.8971 25.5401C14.2345 28.4297 13.943 29.877 16.0141 32.2092C18.5768 32.2073 20.8489 31.7352 22.8529 30.8512C24.3015 30.2122 25.585 29.3788 26.7471 28.3076C28.2825 26.8923 29.4853 25.1415 30.3061 23.1274C31.1268 21.1132 31.5658 18.8356 31.5658 16.3662L27.7088 16.8463Z" fill="url(#paint3_radial_165_365)"/>
</g>
<g filter="url(#filter4_f_165_365)">
<path d="M15.7803 12.798V19.4169H31.0167C31.1507 18.5104 31.5939 17.3374 31.5939 16.3663C31.5939 15.2315 31.4823 13.8454 31.2929 12.798H15.7803Z" fill="#3086FF"/>
</g>
<g filter="url(#filter5_f_165_365)">
<path d="M3.83746 5.09863C2.89721 6.14838 2.09395 7.32336 1.45706 8.59407C0.364397 10.7673 -0.233887 13.4093 -0.233887 15.9987C-0.233887 16.0352 -0.230927 16.0709 -0.230688 16.1073C0.253218 17.0541 6.4536 16.8728 6.76612 16.1073C6.76573 16.0716 6.76179 16.0368 6.76179 16.001C6.76179 14.9389 6.93763 14.1561 7.25814 13.1959C7.65353 12.0116 8.27263 10.9209 9.06428 9.98126C9.24374 9.74747 9.72242 9.24488 9.86207 8.94341C9.91528 8.82858 9.76549 8.76413 9.75711 8.72371C9.74775 8.67851 9.54693 8.71486 9.50194 8.68119C9.35909 8.57427 9.07622 8.51844 8.90445 8.46881C8.53731 8.36274 7.92886 8.12881 7.59091 7.88632C6.52264 7.11981 4.85553 6.20423 3.83746 5.09863Z" fill="url(#paint4_radial_165_365)"/>
</g>
<g filter="url(#filter6_f_165_365)">
<path d="M7.61387 8.7282C10.0911 10.2594 10.8035 7.95533 12.4504 7.23434L9.58546 1.17188C8.53156 1.62387 7.53584 2.18543 6.61196 2.84156C5.23222 3.82145 4.01381 5.01719 3.00732 6.37796L7.61387 8.7282Z" fill="url(#paint5_radial_165_365)"/>
</g>
<g filter="url(#filter7_f_165_365)">
<path d="M8.62196 24.1957C5.29666 25.4207 4.77606 25.4647 4.46997 27.5675C5.0549 28.15 5.68336 28.6887 6.3512 29.1772C8.14322 30.488 11.5903 32.2337 15.9988 32.2337C16.0039 32.2337 16.0089 32.2333 16.0141 32.2333V25.4233C16.0107 25.4234 16.0069 25.4236 16.0036 25.4236C14.3527 25.4236 13.0336 24.9811 11.681 24.2117C11.3475 24.022 10.7425 24.5314 10.4349 24.3037C10.0107 23.9896 8.98988 24.5743 8.62196 24.1957Z" fill="url(#paint6_radial_165_365)"/>
</g>
<g opacity="0.5" filter="url(#filter8_f_165_365)">
<path d="M14.0667 25.2087V32.1152C14.6835 32.1889 15.3254 32.2336 15.9988 32.2336C16.6739 32.2336 17.327 32.1983 17.9616 32.1332V25.2553C17.2504 25.3794 16.5806 25.4235 16.0036 25.4235C15.3391 25.4235 14.6928 25.3445 14.0667 25.2087Z" fill="url(#paint7_linear_165_365)"/>
</g>
</g>
</g>
<defs>
<filter id="filter0_f_165_365" x="-0.279852" y="16.0582" width="12.276" height="11.3799" filterUnits="userSpaceOnUse" color-interpolation-filters="sRGB">
<feFlood flood-opacity="0" result="BackgroundImageFix"/>
<feBlend mode="normal" in="SourceGraphic" in2="BackgroundImageFix" result="shape"/>
<feGaussianBlur stdDeviation="0.0245695" result="effect1_foregroundBlur_165_365"/>
</filter>
<filter id="filter1_f_165_365" x="15.5202" y="-0.165472" width="11.382" height="9.08387" filterUnits="userSpaceOnUse" color-interpolation-filters="sRGB">
<feFlood flood-opacity="0" result="BackgroundImageFix"/>
<feBlend mode="normal" in="SourceGraphic" in2="BackgroundImageFix" result="shape"/>
<feGaussianBlur stdDeviation="0.0245695" result="effect1_foregroundBlur_165_365"/>
</filter>
<filter id="filter2_f_165_365" x="3.69866" y="-0.18598" width="12.4816" height="10.0996" filterUnits="userSpaceOnUse" color-interpolation-filters="sRGB">
<feFlood flood-opacity="0" result="BackgroundImageFix"/>
<feBlend mode="normal" in="SourceGraphic" in2="BackgroundImageFix" result="shape"/>
<feGaussianBlur stdDeviation="0.0245695" result="effect1_foregroundBlur_165_365"/>
</filter>
<filter id="filter3_f_165_365" x="14.5055" y="16.3171" width="17.1093" height="15.9413" filterUnits="userSpaceOnUse" color-interpolation-filters="sRGB">
<feFlood flood-opacity="0" result="BackgroundImageFix"/>
<feBlend mode="normal" in="SourceGraphic" in2="BackgroundImageFix" result="shape"/>
<feGaussianBlur stdDeviation="0.0245695" result="effect1_foregroundBlur_165_365"/>
</filter>
<filter id="filter4_f_165_365" x="15.7311" y="12.7488" width="15.912" height="6.71717" filterUnits="userSpaceOnUse" color-interpolation-filters="sRGB">
<feFlood flood-opacity="0" result="BackgroundImageFix"/>
<feBlend mode="normal" in="SourceGraphic" in2="BackgroundImageFix" result="shape"/>
<feGaussianBlur stdDeviation="0.0245695" result="effect1_foregroundBlur_165_365"/>
</filter>
<filter id="filter5_f_165_365" x="-0.283026" y="5.04949" width="10.2057" height="11.7509" filterUnits="userSpaceOnUse" color-interpolation-filters="sRGB">
<feFlood flood-opacity="0" result="BackgroundImageFix"/>
<feBlend mode="normal" in="SourceGraphic" in2="BackgroundImageFix" result="shape"/>
<feGaussianBlur stdDeviation="0.0245695" result="effect1_foregroundBlur_165_365"/>
</filter>
<filter id="filter6_f_165_365" x="2.66186" y="0.826408" width="10.134" height="8.76186" filterUnits="userSpaceOnUse" color-interpolation-filters="sRGB">
<feFlood flood-opacity="0" result="BackgroundImageFix"/>
<feBlend mode="normal" in="SourceGraphic" in2="BackgroundImageFix" result="shape"/>
<feGaussianBlur stdDeviation="0.172734" result="effect1_foregroundBlur_165_365"/>
</filter>
<filter id="filter7_f_165_365" x="4.42083" y="24.1193" width="11.6425" height="8.16359" filterUnits="userSpaceOnUse" color-interpolation-filters="sRGB">
<feFlood flood-opacity="0" result="BackgroundImageFix"/>
<feBlend mode="normal" in="SourceGraphic" in2="BackgroundImageFix" result="shape"/>
<feGaussianBlur stdDeviation="0.0245695" result="effect1_foregroundBlur_165_365"/>
</filter>
<filter id="filter8_f_165_365" x="14.0175" y="25.1596" width="3.9933" height="7.12318" filterUnits="userSpaceOnUse" color-interpolation-filters="sRGB">
<feFlood flood-opacity="0" result="BackgroundImageFix"/>
<feBlend mode="normal" in="SourceGraphic" in2="BackgroundImageFix" result="shape"/>
<feGaussianBlur stdDeviation="0.0245695" result="effect1_foregroundBlur_165_365"/>
</filter>
<radialGradient id="paint0_radial_165_365" cx="0" cy="0" r="1" gradientTransform="matrix(-0.651663 -15.9359 23.43 -0.956298 11.8006 27.1488)" gradientUnits="userSpaceOnUse">
<stop offset="0.141612" stop-color="#1ABD4D"/>
<stop offset="0.247515" stop-color="#6EC30D"/>
<stop offset="0.311547" stop-color="#8AC502"/>
<stop offset="0.366013" stop-color="#A2C600"/>
<stop offset="0.445673" stop-color="#C8C903"/>
<stop offset="0.540305" stop-color="#EBCB03"/>
<stop offset="0.615636" stop-color="#F7CD07"/>
<stop offset="0.699345" stop-color="#FDCD04"/>
<stop offset="0.771242" stop-color="#FDCE05"/>
<stop offset="0.860566" stop-color="#FFCE0A"/>
</radialGradient>
<radialGradient id="paint1_radial_165_365" cx="0" cy="0" r="1" gradientTransform="matrix(11.067 -2.71409e-05 -1.55552e-05 14.279 26.4142 8.53007)" gradientUnits="userSpaceOnUse">
<stop offset="0.408458" stop-color="#FB4E5A"/>
<stop offset="1" stop-color="#FF4540"/>
</radialGradient>
<radialGradient id="paint2_radial_165_365" cx="0" cy="0" r="1" gradientTransform="matrix(-15.5057 8.57989 11.6538 21.0213 20.3704 -2.20378)" gradientUnits="userSpaceOnUse">
<stop offset="0.231273" stop-color="#FF4541"/>
<stop offset="0.311547" stop-color="#FF4540"/>
<stop offset="0.457516" stop-color="#FF4640"/>
<stop offset="0.540305" stop-color="#FF473F"/>
<stop offset="0.699346" stop-color="#FF5138"/>
<stop offset="0.771242" stop-color="#FF5B33"/>
<stop offset="0.860566" stop-color="#FF6C29"/>
<stop offset="1" stop-color="#FF8C18"/>
</radialGradient>
<radialGradient id="paint3_radial_165_365" cx="0" cy="0" r="1" gradientTransform="matrix(-28.12 -36.673 -13.5497 10.37 16.2446 30.1381)" gradientUnits="userSpaceOnUse">
<stop offset="0.131546" stop-color="#0CBA65"/>
<stop offset="0.209784" stop-color="#0BB86D"/>
<stop offset="0.297297" stop-color="#09B479"/>
<stop offset="0.396257" stop-color="#08AD93"/>
<stop offset="0.477124" stop-color="#0AA6A9"/>
<stop offset="0.568425" stop-color="#0D9CC6"/>
<stop offset="0.667385" stop-color="#1893DD"/>
<stop offset="0.768727" stop-color="#258BF1"/>
<stop offset="0.858506" stop-color="#3086FF"/>
</radialGradient>
<radialGradient id="paint4_radial_165_365" cx="0" cy="0" r="1" gradientTransform="matrix(-1.98999 17.1362 23.7162 2.74891 14.64 2.88547)" gradientUnits="userSpaceOnUse">
<stop offset="0.366013" stop-color="#FF4E3A"/>
<stop offset="0.457516" stop-color="#FF8A1B"/>
<stop offset="0.540305" stop-color="#FFA312"/>
<stop offset="0.615636" stop-color="#FFB60C"/>
<stop offset="0.771242" stop-color="#FFCD0A"/>
<stop offset="0.860566" stop-color="#FECF0A"/>
<stop offset="0.915033" stop-color="#FECF08"/>
<stop offset="1" stop-color="#FDCD01"/>
</radialGradient>
<radialGradient id="paint5_radial_165_365" cx="0" cy="0" r="1" gradientTransform="matrix(-5.75211 6.3557 -17.9434 -16.2088 11.8416 2.70768)" gradientUnits="userSpaceOnUse">
<stop offset="0.315904" stop-color="#FF4C3C"/>
<stop offset="0.603818" stop-color="#FF692C"/>
<stop offset="0.726837" stop-color="#FF7825"/>
<stop offset="0.884534" stop-color="#FF8D1B"/>
<stop offset="1" stop-color="#FF9F13"/>
</radialGradient>
<radialGradient id="paint6_radial_165_365" cx="0" cy="0" r="1" gradientTransform="matrix(-15.5057 -8.57989 11.6538 -21.0213 20.3704 34.2034)" gradientUnits="userSpaceOnUse">
<stop offset="0.231273" stop-color="#0FBC5F"/>
<stop offset="0.311547" stop-color="#0FBC5F"/>
<stop offset="0.366013" stop-color="#0FBC5E"/>
<stop offset="0.457516" stop-color="#0FBC5D"/>
<stop offset="0.540305" stop-color="#12BC58"/>
<stop offset="0.699346" stop-color="#28BF3C"/>
<stop offset="0.771242" stop-color="#38C02B"/>
<stop offset="0.860566" stop-color="#52C218"/>
<stop offset="0.915033" stop-color="#67C30F"/>
<stop offset="1" stop-color="#86C504"/>
</radialGradient>
<linearGradient id="paint7_linear_165_365" x1="14.0667" y1="28.7212" x2="17.9616" y2="28.7212" gradientUnits="userSpaceOnUse">
<stop stop-color="#0FBC5C"/>
<stop offset="1" stop-color="#0CBA65"/>
</linearGradient>
<clipPath id="clip0_165_365">
<rect width="31.36" height="32" fill="white"/>
</clipPath>
</defs>
</svg>
