<svg width="110" height="36" viewBox="0 0 110 36" fill="none" xmlns="http://www.w3.org/2000/svg">
<path opacity="0.5" d="M0 10.8948V25.1052L13.3906 15.9225V1.71191L0 10.8948Z" fill="white"/>
<path opacity="0.5" d="M0 25.1053V10.8948L13.3906 20.0776V34.2882L0 25.1053Z" fill="white"/>
<path opacity="0.5" d="M29.9321 10.8947V25.1053L16.5415 15.9224V1.71191L29.9321 10.8947Z" fill="white"/>
<path opacity="0.5" d="M29.9321 25.1053V10.8948L16.5415 20.0776V34.2882L29.9321 25.1053Z" fill="white"/>
<path d="M37.415 18.15C37.415 16.85 37.6957 15.6938 38.2569 14.6813C38.8181 13.6562 39.5976 12.8625 40.5953 12.3C41.6055 11.725 42.7467 11.4375 44.0188 11.4375C45.5777 11.4375 46.9122 11.85 48.0222 12.675C49.1321 13.5 49.8742 14.625 50.2484 16.05H46.7314C46.4695 15.4999 46.0953 15.0812 45.6089 14.7938C45.135 14.5062 44.5925 14.3625 43.9814 14.3625C42.9961 14.3625 42.1979 14.7062 41.5868 15.3937C40.9757 16.0812 40.6701 17 40.6701 18.15C40.6701 19.3 40.9757 20.2187 41.5868 20.9062C42.1979 21.5937 42.9961 21.9375 43.9814 21.9375C44.5925 21.9375 45.135 21.7937 45.6089 21.5062C46.0953 21.2187 46.4695 20.8 46.7314 20.25H50.2484C49.8742 21.675 49.1321 22.8 48.0222 23.625C46.9122 24.4375 45.5777 24.8438 44.0188 24.8438C42.7467 24.8438 41.6055 24.5625 40.5953 24C39.5976 23.425 38.8181 22.6313 38.2569 21.6188C37.6957 20.6063 37.415 19.45 37.415 18.15Z" fill="white"/>
<path d="M62.1411 14.2875V24.75H58.9421V23.325C58.6178 23.7874 58.1751 24.1624 57.6139 24.45C57.0651 24.7249 56.454 24.8625 55.7806 24.8625C54.9824 24.8625 54.2777 24.6874 53.6666 24.3375C53.0555 23.9749 52.5816 23.4562 52.2449 22.7812C51.9081 22.1062 51.7397 21.3124 51.7397 20.4V14.2875H54.92V19.9687C54.92 20.6687 55.1008 21.2125 55.4625 21.6C55.8242 21.9874 56.3106 22.1812 56.9217 22.1812C57.5453 22.1812 58.0379 21.9874 58.3996 21.6C58.7613 21.2125 58.9421 20.6687 58.9421 19.9687V14.2875H62.1411Z" fill="white"/>
<path d="M67.2637 15.7687C67.563 15.2812 67.9933 14.8875 68.5545 14.5875C69.1157 14.2875 69.758 14.1375 70.4814 14.1375C71.3419 14.1375 72.1213 14.3562 72.8198 14.7938C73.5182 15.2312 74.0669 15.8562 74.4661 16.6688C74.8778 17.4812 75.0836 18.425 75.0836 19.5C75.0836 20.575 74.8778 21.525 74.4661 22.35C74.0669 23.1625 73.5182 23.7938 72.8198 24.2438C72.1213 24.6812 71.3419 24.9 70.4814 24.9C69.7455 24.9 69.1032 24.7562 68.5545 24.4688C68.0057 24.1687 67.5754 23.775 67.2637 23.2875V24.75H64.0647V10.875H67.2637V15.7687ZM71.8283 19.5C71.8283 18.7 71.6038 18.075 71.1548 17.625C70.7183 17.1625 70.1758 16.9313 69.5273 16.9313C68.8912 16.9313 68.3487 17.1625 67.8997 17.625C67.4632 18.0875 67.245 18.7187 67.245 19.5187C67.245 20.3187 67.4632 20.95 67.8997 21.4125C68.3487 21.8749 68.8912 22.1063 69.5273 22.1063C70.1633 22.1063 70.7059 21.8749 71.1548 21.4125C71.6038 20.9374 71.8283 20.2999 71.8283 19.5Z" fill="white"/>
<path d="M86.2272 19.3501C86.2272 19.6501 86.2085 19.9625 86.171 20.2876H78.9312C78.9814 20.9375 79.1872 21.4375 79.5486 21.7876C79.9227 22.1251 80.3785 22.2938 80.9142 22.2938C81.7127 22.2938 82.2679 21.9563 82.5792 21.2813H85.984C85.8096 21.9688 85.4916 22.5875 85.0299 23.1376C84.5809 23.6875 84.0137 24.1188 83.3275 24.4313C82.6421 24.7438 81.8751 24.9001 81.0265 24.9001C80.0043 24.9001 79.0936 24.6813 78.2952 24.2438C77.4975 23.8063 76.8734 23.1813 76.4244 22.3688C75.9755 21.5563 75.751 20.6063 75.751 19.5188C75.751 18.4313 75.9695 17.4813 76.4057 16.6688C76.8547 15.8563 77.4788 15.2313 78.2765 14.7938C79.0749 14.3563 79.9916 14.1376 81.0265 14.1376C82.0367 14.1376 82.9346 14.35 83.7204 14.7751C84.5061 15.2 85.1174 15.8063 85.5537 16.5938C86.0027 17.3813 86.2272 18.3001 86.2272 19.3501ZM82.9534 18.5063C82.9534 17.9563 82.7663 17.5188 82.3921 17.1938C82.018 16.8688 81.5503 16.7063 80.9891 16.7063C80.4533 16.7063 79.9976 16.8625 79.6234 17.1751C79.262 17.4875 79.0375 17.9313 78.95 18.5063H82.9534Z" fill="white"/>
<path d="M93.9205 24.75L90.7402 20.3625V24.75H87.5413V10.875H90.7402V18.5438L93.9018 14.2875H97.8491L93.5089 19.5375L97.8865 24.75H93.9205Z" fill="white"/>
<path d="M100.34 13.2001C99.7791 13.2001 99.3174 13.0375 98.9559 12.7126C98.6065 12.3751 98.4321 11.9626 98.4321 11.4751C98.4321 10.975 98.6065 10.5625 98.9559 10.2376C99.3174 9.90007 99.7791 9.73132 100.34 9.73132C100.889 9.73132 101.338 9.90007 101.687 10.2376C102.049 10.5625 102.23 10.975 102.23 11.4751C102.23 11.9626 102.049 12.3751 101.687 12.7126C101.338 13.0375 100.889 13.2001 100.34 13.2001ZM101.93 14.2876V24.7501H98.7314V14.2876H101.93Z" fill="white"/>
<path d="M109.692 22.0313V24.75H108.065C106.905 24.75 106.001 24.4688 105.352 23.9063C104.704 23.3313 104.38 22.4 104.38 21.1125V16.95H103.107V14.2875H104.38V11.7375H107.579V14.2875H109.674V16.95H107.579V21.15C107.579 21.4625 107.653 21.6875 107.803 21.825C107.953 21.9625 108.202 22.0313 108.551 22.0313H109.692Z" fill="white"/>
</svg>
